HIERARCHY
ROOT Hips
{
	OFFSET 0.000000 71.427986 0.000000
	CHANNELS 6 Xposition Yposition Zposition Xrotation Yrotation Zrotation
	JOINT Pelvis
	{
		OFFSET 0.000000 0.000000 0.000000
		CHANNELS 3 Xrotation Yrotation Zrotation
		JOINT LeftUpLeg
		{
			OFFSET 6.797100 -2.508499 -1.318700
			CHANNELS 3 Xrotation Yrotation Zrotation
			JOINT LeftLeg
			{
				OFFSET 0.069008 -29.241863 0.690200
				CHANNELS 3 Xrotation Yrotation Zrotation
				JOINT LeftFoot
				{
					OFFSET -0.069008 -29.568123 -0.266800
					CHANNELS 3 Xrotation Yrotation Zrotation
					JOINT LeftToeBase
					{
						OFFSET 3.145500 -8.631000 16.059900
						CHANNELS 3 Xrotation Yrotation Zrotation
						End Site
						{
							OFFSET 0.000000 18.501587 0.000000
						}
					}
				}
			}
			JOINT Left_ShortSleeve
			{
				OFFSET 0.265923 -10.480953 1.153800
				CHANNELS 3 Xrotation Yrotation Zrotation
				End Site
				{
					OFFSET 1.725763 19.823879 0.000000
				}
			}
		}
		JOINT RightUpLeg
		{
			OFFSET -6.797100 -2.508499 -1.318700
			CHANNELS 3 Xrotation Yrotation Zrotation
			JOINT RightLeg
			{
				OFFSET -0.082453 -29.241932 0.688000
				CHANNELS 3 Xrotation Yrotation Zrotation
				JOINT RightFoot
				{
					OFFSET 0.082453 -29.568058 -0.264600
					CHANNELS 3 Xrotation Yrotation Zrotation
					JOINT RightToeBase
					{
						OFFSET -3.115300 -8.682800 16.113400
						CHANNELS 3 Xrotation Yrotation Zrotation
						End Site
						{
							OFFSET 0.000000 18.567114 0.000000
						}
					}
				}
			}
			JOINT Right_ShortSleeve
			{
				OFFSET -0.265923 -10.480953 1.153800
				CHANNELS 3 Xrotation Yrotation Zrotation
				End Site
				{
					OFFSET -1.725766 19.823910 0.000000
				}
			}
		}
	}
	JOINT Spine
	{
		OFFSET 0.000000 13.368103 0.470500
		CHANNELS 3 Xrotation Yrotation Zrotation
		JOINT Spine1
		{
			OFFSET 0.147000 13.837402 0.538800
			CHANNELS 3 Xrotation Yrotation Zrotation
			JOINT Spine2
			{
				OFFSET 0.168000 16.242897 -1.435500
				CHANNELS 3 Xrotation Yrotation Zrotation
				JOINT Neck
				{
					OFFSET 0.217200 18.631500 -1.679100
					CHANNELS 3 Xrotation Yrotation Zrotation
					JOINT Head
					{
						OFFSET 0.000000 6.599396 1.385900
						CHANNELS 3 Xrotation Yrotation Zrotation
						JOINT Hat
						{
							OFFSET -0.532200 27.220596 -10.096100
							CHANNELS 3 Xrotation Yrotation Zrotation
							End Site
							{
								OFFSET 0.000000 22.029861 0.000000
							}
						}
						JOINT HairD
						{
							OFFSET -10.777400 17.437393 -1.325900
							CHANNELS 3 Xrotation Yrotation Zrotation
							JOINT HairD1
							{
								OFFSET -3.290299 -11.051193 1.062200
								CHANNELS 3 Xrotation Yrotation Zrotation
								End Site
								{
									OFFSET 0.000000 11.579437 0.000000
								}
							}
						}
						JOINT HairB
						{
							OFFSET -10.777400 17.437393 1.467900
							CHANNELS 3 Xrotation Yrotation Zrotation
							JOINT HairB1
							{
								OFFSET -1.561200 -12.956299 3.590200
								CHANNELS 3 Xrotation Yrotation Zrotation
								End Site
								{
									OFFSET 0.000000 13.534866 0.000000
								}
							}
						}
						JOINT HairA
						{
							OFFSET 9.713100 17.437393 1.467900
							CHANNELS 3 Xrotation Yrotation Zrotation
							JOINT HairA1
							{
								OFFSET 1.561200 -12.956299 3.590200
								CHANNELS 3 Xrotation Yrotation Zrotation
								End Site
								{
									OFFSET 0.000000 13.534866 0.000000
								}
							}
						}
						JOINT HairC
						{
							OFFSET 9.713100 17.437393 -1.325900
							CHANNELS 3 Xrotation Yrotation Zrotation
							JOINT HairC1
							{
								OFFSET 3.290300 -11.051193 1.062200
								CHANNELS 3 Xrotation Yrotation Zrotation
								End Site
								{
									OFFSET 0.000000 11.579437 0.000000
								}
							}
						}
					}
				}
				JOINT LeftShoulder
				{
					OFFSET 5.101800 15.108002 -2.763700
					CHANNELS 3 Xrotation Yrotation Zrotation
					JOINT LeftArm
					{
						OFFSET 9.825497 2.506317 -1.597400
						CHANNELS 3 Xrotation Yrotation Zrotation
						JOINT LeftForeArm
						{
							OFFSET 21.966244 0.000000 0.000000
							CHANNELS 3 Xrotation Yrotation Zrotation
							JOINT LeftHand
							{
								OFFSET 33.879036 0.000000 0.000000
								CHANNELS 3 Xrotation Yrotation Zrotation
								JOINT LeftHandThumb1
								{
									OFFSET 6.715286 -2.359680 3.363841
									CHANNELS 3 Xrotation Yrotation Zrotation
									JOINT LeftHandThumb2
									{
										OFFSET 2.507072 -1.447464 1.447461
										CHANNELS 3 Xrotation Yrotation Zrotation
										JOINT LeftHandThumb3
										{
											OFFSET 2.898338 -1.673355 1.673357
											CHANNELS 3 Xrotation Yrotation Zrotation
											End Site
											{
												OFFSET -0.295959 3.727692 -0.131651
											}
										}
									}
								}
								JOINT LeftHandIndex1
								{
									OFFSET 14.190811 -0.254547 3.840278
									CHANNELS 3 Xrotation Yrotation Zrotation
									JOINT LeftHandIndex2
									{
										OFFSET 3.551727 0.000000 -0.000000
										CHANNELS 3 Xrotation Yrotation Zrotation
										JOINT LeftHandIndex3
										{
											OFFSET 2.894196 0.000000 0.000000
											CHANNELS 3 Xrotation Yrotation Zrotation
											End Site
											{
												OFFSET -1.000603 2.690872 0.366626
											}
										}
									}
								}
								JOINT LeftHandMiddle1
								{
									OFFSET 13.776489 0.000000 0.000000
									CHANNELS 3 Xrotation Yrotation Zrotation
									JOINT LeftHandMiddle2
									{
										OFFSET 3.438232 0.000000 0.000000
										CHANNELS 3 Xrotation Yrotation Zrotation
										JOINT LeftHandMiddle3
										{
											OFFSET 3.691551 0.000000 0.000000
											CHANNELS 3 Xrotation Yrotation Zrotation
											End Site
											{
												OFFSET -1.082298 3.499527 0.457670
											}
										}
									}
								}
								JOINT LeftHandRing1
								{
									OFFSET 13.966164 -0.268127 -3.067488
									CHANNELS 3 Xrotation Yrotation Zrotation
									JOINT LeftHandRing2
									{
										OFFSET 3.162567 0.000000 0.000000
										CHANNELS 3 Xrotation Yrotation Zrotation
										JOINT LeftHandRing3
										{
											OFFSET 3.324348 0.000000 0.000000
											CHANNELS 3 Xrotation Yrotation Zrotation
											End Site
											{
												OFFSET -0.861900 3.184998 0.405154
											}
										}
									}
								}
								JOINT LeftHandPinky1
								{
									OFFSET 13.131393 -0.168503 -5.746925
									CHANNELS 3 Xrotation Yrotation Zrotation
									JOINT LeftHandPinky2
									{
										OFFSET 2.849182 0.000000 0.000000
										CHANNELS 3 Xrotation Yrotation Zrotation
										JOINT LeftHandPinky3
										{
											OFFSET 2.805038 0.000000 0.000000
											CHANNELS 3 Xrotation Yrotation Zrotation
											End Site
											{
												OFFSET -0.882500 2.642609 0.325652
											}
										}
									}
								}
							}
							JOINT Left_Sleeve
							{
								OFFSET 6.592125 -0.646545 0.805568
								CHANNELS 3 Xrotation Yrotation Zrotation
								End Site
								{
									OFFSET -0.000179 20.275787 -0.000000
								}
							}
						}
					}
				}
				JOINT RightShoulder
				{
					OFFSET -5.731700 15.108002 -2.763700
					CHANNELS 3 Xrotation Yrotation Zrotation
					JOINT RightArm
					{
						OFFSET -9.825497 2.506317 -1.597400
						CHANNELS 3 Xrotation Yrotation Zrotation
						JOINT RightForeArm
						{
							OFFSET -21.966242 0.000000 0.000000
							CHANNELS 3 Xrotation Yrotation Zrotation
							JOINT RightHand
							{
								OFFSET -33.879032 0.000000 0.000000
								CHANNELS 3 Xrotation Yrotation Zrotation
								JOINT RightHandThumb1
								{
									OFFSET -6.715286 -2.359680 3.363841
									CHANNELS 3 Xrotation Yrotation Zrotation
									JOINT RightHandThumb2
									{
										OFFSET -2.507072 -1.447464 1.447461
										CHANNELS 3 Xrotation Yrotation Zrotation
										JOINT RightHandThumb3
										{
											OFFSET -2.898338 -1.673355 1.673357
											CHANNELS 3 Xrotation Yrotation Zrotation
											End Site
											{
												OFFSET 0.295959 3.727692 -0.131651
											}
										}
									}
								}
								JOINT RightHandIndex1
								{
									OFFSET -14.190811 -0.254547 3.840278
									CHANNELS 3 Xrotation Yrotation Zrotation
									JOINT RightHandIndex2
									{
										OFFSET -3.551727 0.000000 -0.000000
										CHANNELS 3 Xrotation Yrotation Zrotation
										JOINT RightHandIndex3
										{
											OFFSET -2.894196 0.000000 0.000000
											CHANNELS 3 Xrotation Yrotation Zrotation
											End Site
											{
												OFFSET 1.000603 2.690872 0.366626
											}
										}
									}
								}
								JOINT RightHandMiddle1
								{
									OFFSET -13.776489 0.000000 0.000000
									CHANNELS 3 Xrotation Yrotation Zrotation
									JOINT RightHandMiddle2
									{
										OFFSET -3.438232 0.000000 0.000000
										CHANNELS 3 Xrotation Yrotation Zrotation
										JOINT RightHandMiddle3
										{
											OFFSET -3.691551 0.000000 0.000000
											CHANNELS 3 Xrotation Yrotation Zrotation
											End Site
											{
												OFFSET 1.082298 3.499527 0.457670
											}
										}
									}
								}
								JOINT RightHandRing1
								{
									OFFSET -13.966164 -0.268127 -3.067488
									CHANNELS 3 Xrotation Yrotation Zrotation
									JOINT RightHandRing2
									{
										OFFSET -3.162567 0.000000 0.000000
										CHANNELS 3 Xrotation Yrotation Zrotation
										JOINT RightHandRing3
										{
											OFFSET -3.324348 0.000000 0.000000
											CHANNELS 3 Xrotation Yrotation Zrotation
											End Site
											{
												OFFSET 0.861900 3.184998 0.405154
											}
										}
									}
								}
								JOINT RightHandPinky1
								{
									OFFSET -13.131393 -0.168503 -5.746925
									CHANNELS 3 Xrotation Yrotation Zrotation
									JOINT RightHandPinky2
									{
										OFFSET -2.849182 0.000000 0.000000
										CHANNELS 3 Xrotation Yrotation Zrotation
										JOINT RightHandPinky3
										{
											OFFSET -2.805038 0.000000 0.000000
											CHANNELS 3 Xrotation Yrotation Zrotation
											End Site
											{
												OFFSET 0.882500 2.642609 0.325652
											}
										}
									}
								}
							}
							JOINT Right_Sleeve
							{
								OFFSET -6.592125 -0.646545 0.805568
								CHANNELS 3 Xrotation Yrotation Zrotation
								End Site
								{
									OFFSET 0.000179 20.275787 -0.000000
								}
							}
						}
					}
				}
				JOINT Bind_Right_JacketString
				{
					OFFSET -3.534800 11.969597 7.200700
					CHANNELS 3 Xrotation Yrotation Zrotation
					JOINT Bind_Right_JacketString1
					{
						OFFSET -0.319900 -6.102600 2.794100
						CHANNELS 3 Xrotation Yrotation Zrotation
						End Site
						{
							OFFSET 0.000000 6.719452 0.000000
						}
					}
				}
				JOINT Bind_Left_JacketString
				{
					OFFSET 2.904800 11.969597 7.200700
					CHANNELS 3 Xrotation Yrotation Zrotation
					JOINT Bind_Left_JacketString1
					{
						OFFSET 0.364800 -5.904503 3.186800
						CHANNELS 3 Xrotation Yrotation Zrotation
						End Site
						{
							OFFSET 0.000000 6.719513 0.000000
						}
					}
				}
				JOINT HairE
				{
					OFFSET 5.915200 17.612701 -11.592200
					CHANNELS 3 Xrotation Yrotation Zrotation
					JOINT HairE1
					{
						OFFSET 0.289200 -7.171898 -1.284500
						CHANNELS 3 Xrotation Yrotation Zrotation
						End Site
						{
							OFFSET 0.000000 7.291756 0.000000
						}
					}
				}
				JOINT HairF
				{
					OFFSET -0.864800 17.612701 -11.592200
					CHANNELS 3 Xrotation Yrotation Zrotation
					JOINT HairF1
					{
						OFFSET 0.000000 -14.087097 -2.127501
						CHANNELS 3 Xrotation Yrotation Zrotation
						End Site
						{
							OFFSET 0.000000 14.246841 0.000000
						}
					}
				}
				JOINT HairG
				{
					OFFSET -8.087700 17.612701 -11.592200
					CHANNELS 3 Xrotation Yrotation Zrotation
					JOINT HairG1
					{
						OFFSET -0.293600 -6.081398 -0.910100
						CHANNELS 3 Xrotation Yrotation Zrotation
						End Site
						{
							OFFSET 0.000000 6.156120 0.000000
						}
					}
				}
			}
		}
	}
	JOINT Pouch
	{
		OFFSET 0.000000 4.394501 10.847300
		CHANNELS 3 Xrotation Yrotation Zrotation
		End Site
		{
			OFFSET 0.000000 21.880577 0.000000
		}
	}
	JOINT Bag
	{
		OFFSET -13.229000 4.813004 -0.593300
		CHANNELS 3 Xrotation Yrotation Zrotation
		End Site
		{
			OFFSET 0.000000 21.880577 0.000000
		}
	}
	JOINT OccupyGuyFacialAnim_Joint
	{
		OFFSET 1.000000 -70.206398 -1.655000
		CHANNELS 3 Xrotation Yrotation Zrotation
		End Site
		{
			OFFSET 0.000000 21.880577 0.000000
		}
	}
}
MOTION
Frames: 4
Frame Time: 0.033333
0.798020 70.068382 -67.455872 9.601375 -9.274790 -4.368278 0.000000 0.000000 0.000000 -33.962989 -3.885523 9.294193 64.755637 3.069737 -11.412793 -3.422712 17.705662 -1.522895 0.000004 0.000002 -0.000001 0.000001 0.000001 0.000001 -15.962676 1.408255 6.704537 23.089680 -8.550729 -1.102761 -14.262505 2.002591 -0.902639 -0.000000 0.000001 0.000000 0.000000 -0.000001 -0.000000 7.476645 2.189370 2.174910 0.167432 0.316957 -1.174325 0.173488 0.300614 -1.177317 1.155517 -0.137455 3.485914 -0.079372 4.059174 -1.018376 0.000002 0.000000 0.000000 0.000002 0.000000 0.000000 0.000002 0.000000 0.000000 0.000002 0.000000 0.000000 0.000000 0.000000 -0.000000 0.000002 0.000000 0.000000 0.000000 0.000000 -0.000000 0.000002 0.000000 0.000000 0.000002 0.000000 0.000000 -0.026955 2.734434 1.927642 8.151655 -23.601452 -66.350957 0.000043 -73.500048 0.000037 30.502389 13.804319 -9.880503 -1.540058 3.690186 6.142350 3.939092 7.948536 0.746752 0.000002 0.000001 -0.000002 0.110249 1.229756 -10.246186 0.158331 1.471011 -12.286031 0.000000 -0.000001 0.000001 0.109915 1.227866 -10.230201 0.158736 1.472872 -12.301727 0.000000 0.000002 0.000001 0.087908 1.099028 -9.146859 0.128335 1.325811 -11.056508 0.000002 0.000000 0.000001 0.493247 4.821679 -6.089917 0.057321 -3.096449 -8.474163 -0.000000 -0.000001 -0.000001 0.000000 0.000000 -0.000001 1.113853 7.950130 6.280729 22.156329 10.254742 46.180541 -0.000007 30.512012 0.000005 13.700615 1.191341 17.122164 -1.849259 -3.581785 -6.586142 5.985976 -13.653672 -2.398769 -0.000003 -0.000001 -0.000000 0.190316 -1.618835 13.409129 0.365741 -2.229476 18.630205 -0.000004 -0.000001 0.000002 0.190317 -1.618829 13.409145 0.326921 -2.110927 17.605028 0.000001 -0.000003 -0.000001 0.190318 -1.618816 13.409129 0.446241 -2.455202 20.599738 0.000004 -0.000002 0.000001 0.190304 -1.618829 13.409130 0.462430 -2.497786 20.974189 0.000000 0.000002 -0.000004 0.000003 -0.000000 -0.000000 0.000001 -0.000000 -0.000000 0.000003 -0.000001 -0.000000 0.000001 -0.000000 -0.000000 0.000001 -0.000000 -0.000000 0.000001 -0.000000 -0.000000 0.000003 -0.000001 -0.000000 0.000001 -0.000000 -0.000000 0.000001 -0.000000 -0.000000 0.000001 -0.000000 -0.000000 0.000003 -0.000001 -0.000000 0.000000 0.000000 0.000000 0.000000 0.000000 0.000000 0.000000 0.000000 0.000000 
0.694191 69.993446 -68.408737 9.376485 -9.933056 -4.600565 -0.000001 -0.000000 -0.000000 -34.813402 -5.383039 9.041477 65.286821 3.256510 -11.478314 -3.052928 19.096888 -2.418060 -0.000002 0.000001 -0.000000 0.000001 -0.000001 0.000000 -13.837454 0.680441 6.608038 23.881686 -7.150152 -1.061354 -16.716111 0.017871 -2.802442 -0.000000 -0.000001 -0.000000 0.000000 0.000001 -0.000001 7.306165 2.661802 2.240337 0.153028 0.386700 -1.098495 0.159760 0.371583 -1.102623 1.298045 -0.080105 3.312084 -0.258956 4.119617 -1.108366 0.000000 0.000000 0.000000 0.000000 0.000000 0.000000 0.000000 0.000000 0.000000 0.000000 0.000000 0.000000 -0.000002 0.000000 0.000000 0.000000 0.000000 0.000000 -0.000002 0.000000 0.000000 0.000000 0.000000 0.000000 0.000000 0.000000 0.000000 -0.058522 2.799774 2.255663 9.699843 -22.706964 -67.082491 0.000026 -68.947816 0.000023 27.917814 12.817840 -4.191196 -1.540054 3.690182 6.142355 3.939055 7.948712 0.746811 -0.000001 -0.000000 -0.000001 0.105933 1.205562 -10.042755 0.151372 1.438689 -12.011828 0.000002 0.000002 -0.000002 0.105597 1.203674 -10.026764 0.151779 1.440602 -12.027795 0.000002 0.000003 -0.000001 0.112520 1.242192 -10.351196 0.160364 1.480369 -12.365198 -0.000002 0.000003 -0.000001 0.594575 4.953205 -7.278948 0.084900 -2.926064 -9.902796 -0.000001 -0.000003 0.000002 0.000002 0.000003 0.000002 1.136220 8.366873 6.425850 20.606119 9.590008 47.279584 0.000004 32.205643 -0.000014 15.898210 0.995454 15.574158 -1.849266 -3.581783 -6.586141 5.883570 -13.216508 -2.209134 -0.000000 -0.000001 -0.000000 0.167892 -1.521803 12.591499 0.298017 -2.017649 16.802692 -0.000001 -0.000000 0.000000 0.167892 -1.521806 12.591500 0.269536 -1.920824 15.973535 0.000001 -0.000000 -0.000001 0.167903 -1.521790 12.591492 0.354906 -2.197130 18.349715 0.000001 -0.000001 -0.000004 0.167890 -1.521805 12.591495 0.366402 -2.231416 18.646797 0.000001 0.000000 -0.000001 -0.000002 -0.000000 0.000001 0.000001 0.000000 0.000000 0.000001 0.000000 0.000000 0.000001 0.000000 -0.000000 0.000001 0.000000 -0.000000 0.000001 0.000000 0.000000 0.000001 0.000000 0.000000 0.000001 0.000000 -0.000000 0.000001 0.000000 -0.000000 0.000001 0.000000 0.000000 0.000001 0.000000 0.000000 -0.000001 -0.000000 -0.000000 -0.000001 -0.000000 -0.000000 -0.000001 -0.000000 -0.000000 
0.694191 69.993446 -68.408737 9.376485 -9.933056 -4.600565 -0.000001 -0.000000 -0.000000 -34.813402 -5.383039 9.041477 65.286821 3.256510 -11.478314 -3.052928 19.096888 -2.418060 -0.000002 0.000001 -0.000000 0.000001 -0.000001 0.000000 -13.837454 0.680441 6.608038 23.881686 -7.150152 -1.061354 -16.716111 0.017871 -2.802442 -0.000000 -0.000001 -0.000000 0.000000 0.000001 -0.000001 7.306165 2.661802 2.240337 0.153028 0.386700 -1.098495 0.159760 0.371583 -1.102623 1.298045 -0.080105 3.312084 -0.258956 4.119617 -1.108366 0.000000 0.000000 0.000000 0.000000 0.000000 0.000000 0.000000 0.000000 0.000000 0.000000 0.000000 0.000000 -0.000002 0.000000 0.000000 0.000000 0.000000 0.000000 -0.000002 0.000000 0.000000 0.000000 0.000000 0.000000 0.000000 0.000000 0.000000 -0.058522 2.799774 2.255663 9.699843 -22.706964 -67.082491 0.000026 -68.947816 0.000023 27.917814 12.817840 -4.191196 -1.540054 3.690182 6.142355 3.939055 7.948712 0.746811 -0.000001 -0.000000 -0.000001 0.105933 1.205562 -10.042755 0.151372 1.438689 -12.011828 0.000002 0.000002 -0.000002 0.105597 1.203674 -10.026764 0.151779 1.440602 -12.027795 0.000002 0.000003 -0.000001 0.112520 1.242192 -10.351196 0.160364 1.480369 -12.365198 -0.000002 0.000003 -0.000001 0.594575 4.953205 -7.278948 0.084900 -2.926064 -9.902796 -0.000001 -0.000003 0.000002 0.000002 0.000003 0.000002 1.136220 8.366873 6.425850 20.606119 9.590008 47.279584 0.000004 32.205643 -0.000014 15.898210 0.995454 15.574158 -1.849266 -3.581783 -6.586141 5.883570 -13.216508 -2.209134 -0.000000 -0.000001 -0.000000 0.167892 -1.521803 12.591499 0.298017 -2.017649 16.802692 -0.000001 -0.000000 0.000000 0.167892 -1.521806 12.591500 0.269536 -1.920824 15.973535 0.000001 -0.000000 -0.000001 0.167903 -1.521790 12.591492 0.354906 -2.197130 18.349715 0.000001 -0.000001 -0.000004 0.167890 -1.521805 12.591495 0.366402 -2.231416 18.646797 0.000001 0.000000 -0.000001 -0.000002 -0.000000 0.000001 0.000001 0.000000 0.000000 0.000001 0.000000 0.000000 0.000001 0.000000 -0.000000 0.000001 0.000000 -0.000000 0.000001 0.000000 0.000000 0.000001 0.000000 0.000000 0.000001 0.000000 -0.000000 0.000001 0.000000 -0.000000 0.000001 0.000000 0.000000 0.000001 0.000000 0.000000 -0.000001 -0.000000 -0.000000 -0.000001 -0.000000 -0.000000 -0.000001 -0.000000 -0.000000 
0.694191 69.993446 -68.408737 9.376485 -9.933056 -4.600565 -0.000001 -0.000000 -0.000000 -34.813402 -5.383039 9.041477 65.286821 3.256510 -11.478314 -3.052928 19.096888 -2.418060 -0.000002 0.000001 -0.000000 0.000001 -0.000001 0.000000 -13.837454 0.680441 6.608038 23.881686 -7.150152 -1.061354 -16.716111 0.017871 -2.802442 -0.000000 -0.000001 -0.000000 0.000000 0.000001 -0.000001 7.306165 2.661802 2.240337 0.153028 0.386700 -1.098495 0.159760 0.371583 -1.102623 1.298045 -0.080105 3.312084 -0.258956 4.119617 -1.108366 0.000000 0.000000 0.000000 0.000000 0.000000 0.000000 0.000000 0.000000 0.000000 0.000000 0.000000 0.000000 -0.000002 0.000000 0.000000 0.000000 0.000000 0.000000 -0.000002 0.000000 0.000000 0.000000 0.000000 0.000000 0.000000 0.000000 0.000000 -0.058522 2.799774 2.255663 9.699843 -22.706964 -67.082491 0.000026 -68.947816 0.000023 27.917814 12.817840 -4.191196 -1.540054 3.690182 6.142355 3.939055 7.948712 0.746811 -0.000001 -0.000000 -0.000001 0.105933 1.205562 -10.042755 0.151372 1.438689 -12.011828 0.000002 0.000002 -0.000002 0.105597 1.203674 -10.026764 0.151779 1.440602 -12.027795 0.000002 0.000003 -0.000001 0.112520 1.242192 -10.351196 0.160364 1.480369 -12.365198 -0.000002 0.000003 -0.000001 0.594575 4.953205 -7.278948 0.084900 -2.926064 -9.902796 -0.000001 -0.000003 0.000002 0.000002 0.000003 0.000002 1.136220 8.366873 6.425850 20.606119 9.590008 47.279584 0.000004 32.205643 -0.000014 15.898210 0.995454 15.574158 -1.849266 -3.581783 -6.586141 5.883570 -13.216508 -2.209134 -0.000000 -0.000001 -0.000000 0.167892 -1.521803 12.591499 0.298017 -2.017649 16.802692 -0.000001 -0.000000 0.000000 0.167892 -1.521806 12.591500 0.269536 -1.920824 15.973535 0.000001 -0.000000 -0.000001 0.167903 -1.521790 12.591492 0.354906 -2.197130 18.349715 0.000001 -0.000001 -0.000004 0.167890 -1.521805 12.591495 0.366402 -2.231416 18.646797 0.000001 0.000000 -0.000001 -0.000002 -0.000000 0.000001 0.000001 0.000000 0.000000 0.000001 0.000000 0.000000 0.000001 0.000000 -0.000000 0.000001 0.000000 -0.000000 0.000001 0.000000 0.000000 0.000001 0.000000 0.000000 0.000001 0.000000 -0.000000 0.000001 0.000000 -0.000000 0.000001 0.000000 0.000000 0.000001 0.000000 0.000000 -0.000001 -0.000000 -0.000000 -0.000001 -0.000000 -0.000000 -0.000001 -0.000000 -0.000000 
